<svg xmlns="http://www.w3.org/2000/svg" viewBox="0 0 400 300"><g id="_84_data_process" data-name="#84_data_process"><rect x="30.97" y="97.6" width="78.22" height="31.53" fill="#fff"/><path d="M109.2,129.6H31a.47.47,0,0,1-.46-.46V97.6a.47.47,0,0,1,.46-.46H109.2a.47.47,0,0,1,.46.46v31.54A.47.47,0,0,1,109.2,129.6Zm-77.76-.92h77.3V98.06H31.44Z" fill="#d1d3d4"/><polygon points="30.98 97.6 30.98 94.75 57.51 94.75 61.09 92.11 109.2 92.11 109.2 97.6 30.98 97.6" fill="#fff"/><path d="M109.2,98.06H31a.46.46,0,0,1-.46-.46V94.75a.46.46,0,0,1,.46-.46H57.36l3.46-2.55a.54.54,0,0,1,.27-.09H109.2a.47.47,0,0,1,.46.47V97.6A.46.46,0,0,1,109.2,98.06Zm-77.76-.92h77.3V92.58H61.25l-3.47,2.54a.44.44,0,0,1-.27.09H31.44Z" fill="#d1d3d4"/><path d="M99.88,101.8H40.29a.46.46,0,0,1-.46-.46.47.47,0,0,1,.46-.46H99.88a.47.47,0,0,1,.46.46A.46.46,0,0,1,99.88,101.8Z" fill="#d1d3d4"/><path d="M100.13,107H40a.47.47,0,0,1-.46-.46A.46.46,0,0,1,40,106h60.09a.46.46,0,0,1,.46.46A.47.47,0,0,1,100.13,107Z" fill="#d1d3d4"/><path d="M74.49,112H40.18a.46.46,0,0,1-.46-.46.45.45,0,0,1,.46-.46H74.49a.46.46,0,0,1,.47.46A.47.47,0,0,1,74.49,112Z" fill="#7db343"/><path d="M140.83,232.85a44.36,44.36,0,0,1-11.14-1.73c-14-3.69-22.52-9.51-26.09-17.77a.46.46,0,1,1,.84-.37c3.46,8,11.8,13.64,25.48,17.25,6.33,1.67,14.37,3.09,20.48-.8a28.38,28.38,0,0,0,4.33-3.65,32.87,32.87,0,0,1,4-3.49A20.86,20.86,0,0,1,170.24,219c4.27-3.93,15.73-4.66,18.08-4.77a36.33,36.33,0,0,0,13.09-2.62,18.13,18.13,0,0,0,9.51-8.81.45.45,0,0,1,.61-.23.47.47,0,0,1,.23.61,19,19,0,0,1-10,9.27,37.08,37.08,0,0,1-13.42,2.7c-2.15.1-12.1.73-16.64,3.85A70.49,70.49,0,0,1,183,220.29a3.58,3.58,0,0,1,2.44,1.16,2,2,0,0,1,.31,1.86c-.45,1.34-2.23,2.49-3.76,2.94-4.19,1.24-8.9,2.12-12-.75a4.2,4.2,0,0,1-1.38-2.46,4.35,4.35,0,0,1,.78-3.11,19.35,19.35,0,0,0-10.1,3.12,30.85,30.85,0,0,0-3.92,3.39,29.13,29.13,0,0,1-4.48,3.77A18.38,18.38,0,0,1,140.83,232.85Zm29.79-13a3,3,0,0,0-.24.26,3.41,3.41,0,0,0-.85,2.78,3.29,3.29,0,0,0,1.09,1.9c2.73,2.55,7.13,1.71,11.08.54,1.28-.38,2.81-1.36,3.14-2.35a1,1,0,0,0-.17-1,2.82,2.82,0,0,0-1.86-.8A64.25,64.25,0,0,0,170.62,219.89Z" fill="#d1d3d4"/><path d="M125.5,202.13c-52.58,0-92.59-.21-93.44-.88a.45.45,0,0,1-.08-.64.46.46,0,0,1,.58-.13c4.74,1.33,222.06.55,336.46,0h0a.46.46,0,1,1,0,.92C334.18,201.53,212.61,202.13,125.5,202.13Z" fill="#d1d3d4"/><rect x="289.3" y="88.29" width="65.94" height="120.35" rx="3.16" fill="#fff"/><path d="M352.08,209.16H292.46a3.68,3.68,0,0,1-3.68-3.68v-114a3.68,3.68,0,0,1,3.68-3.68h59.62a3.68,3.68,0,0,1,3.68,3.68v114A3.68,3.68,0,0,1,352.08,209.16ZM292.46,88.81a2.65,2.65,0,0,0-2.64,2.65v114a2.65,2.65,0,0,0,2.64,2.65h59.62a2.65,2.65,0,0,0,2.65-2.65v-114a2.65,2.65,0,0,0-2.65-2.65Z" fill="#231f20"/><rect x="294.58" y="92.37" width="55.98" height="14.23" rx="3.17" fill="#fff"/><path d="M347.39,107.12H297.75a3.7,3.7,0,0,1-3.69-3.69V95.54a3.7,3.7,0,0,1,3.69-3.69h49.64a3.69,3.69,0,0,1,3.68,3.69v7.89A3.69,3.69,0,0,1,347.39,107.12ZM297.75,92.89a2.66,2.66,0,0,0-2.66,2.65v7.89a2.66,2.66,0,0,0,2.66,2.65h49.64a2.65,2.65,0,0,0,2.65-2.65V95.54a2.65,2.65,0,0,0-2.65-2.65Z" fill="#231f20"/><path d="M343.75,98.36h-24a.45.45,0,0,1-.46-.46.46.46,0,0,1,.46-.46h24a.46.46,0,0,1,.46.46A.45.45,0,0,1,343.75,98.36Z" fill="#d1d3d4"/><path d="M343.75,102.05h-24a.45.45,0,0,1-.46-.46.46.46,0,0,1,.46-.46h24a.46.46,0,0,1,.46.46A.45.45,0,0,1,343.75,102.05Z" fill="#d1d3d4"/><circle cx="302.17" cy="99.48" r="2.21" fill="#7db343"/><path d="M309.36,102.16A2.68,2.68,0,1,1,312,99.48,2.68,2.68,0,0,1,309.36,102.16Zm0-4.43a1.76,1.76,0,1,0,1.76,1.75A1.76,1.76,0,0,0,309.36,97.73Z" fill="#d1d3d4"/><rect x="294.58" y="109.76" width="55.98" height="14.23" rx="3.17" fill="#fff"/><path d="M347.39,124.51H297.75a3.7,3.7,0,0,1-3.69-3.69v-7.89a3.69,3.69,0,0,1,3.69-3.68h49.64a3.68,3.68,0,0,1,3.68,3.68v7.89A3.69,3.69,0,0,1,347.39,124.51Zm-49.64-14.23a2.66,2.66,0,0,0-2.66,2.65v7.89a2.67,2.67,0,0,0,2.66,2.66h49.64a2.66,2.66,0,0,0,2.65-2.66v-7.89a2.65,2.65,0,0,0-2.65-2.65Z" fill="#231f20"/><path d="M343.75,115.76h-24a.46.46,0,0,1-.46-.46.45.45,0,0,1,.46-.46h24a.45.45,0,0,1,.46.46A.46.46,0,0,1,343.75,115.76Z" fill="#d1d3d4"/><path d="M343.75,119.45h-24a.47.47,0,0,1,0-.93h24a.47.47,0,0,1,0,.93Z" fill="#d1d3d4"/><circle cx="302.17" cy="116.88" r="2.21" fill="#7db343"/><path d="M309.36,119.55a2.68,2.68,0,1,1,2.68-2.67A2.68,2.68,0,0,1,309.36,119.55Zm0-4.43a1.76,1.76,0,1,0,1.76,1.76A1.76,1.76,0,0,0,309.36,115.12Z" fill="#d1d3d4"/><rect x="294.58" y="127.15" width="55.98" height="14.23" rx="3.17" fill="#fff"/><path d="M347.39,141.9H297.75a3.69,3.69,0,0,1-3.69-3.68v-7.9a3.69,3.69,0,0,1,3.69-3.68h49.64a3.68,3.68,0,0,1,3.68,3.68v7.9A3.68,3.68,0,0,1,347.39,141.9Zm-49.64-14.23a2.66,2.66,0,0,0-2.66,2.65v7.9a2.66,2.66,0,0,0,2.66,2.65h49.64a2.65,2.65,0,0,0,2.65-2.65v-7.9a2.65,2.65,0,0,0-2.65-2.65Z" fill="#231f20"/><path d="M343.75,133.15h-24a.46.46,0,0,1-.46-.46.45.45,0,0,1,.46-.46h24a.45.45,0,0,1,.46.46A.46.46,0,0,1,343.75,133.15Z" fill="#d1d3d4"/><path d="M343.75,136.84h-24a.46.46,0,0,1-.46-.46.45.45,0,0,1,.46-.46h24a.45.45,0,0,1,.46.46A.46.46,0,0,1,343.75,136.84Z" fill="#d1d3d4"/><circle cx="302.17" cy="134.27" r="2.21" fill="#7db343"/><path d="M309.36,136.94a2.67,2.67,0,1,1,2.68-2.67A2.68,2.68,0,0,1,309.36,136.94Zm0-4.42a1.75,1.75,0,1,0,1.76,1.75A1.75,1.75,0,0,0,309.36,132.52Z" fill="#d1d3d4"/><rect x="294.58" y="144.55" width="55.98" height="14.23" rx="3.17" fill="#fff"/><path d="M347.39,159.29H297.75a3.69,3.69,0,0,1-3.69-3.68v-7.89a3.69,3.69,0,0,1,3.69-3.69h49.64a3.69,3.69,0,0,1,3.68,3.69v7.89A3.68,3.68,0,0,1,347.39,159.29Zm-49.64-14.23a2.67,2.67,0,0,0-2.66,2.66v7.89a2.66,2.66,0,0,0,2.66,2.65h49.64a2.65,2.65,0,0,0,2.65-2.65v-7.89a2.66,2.66,0,0,0-2.65-2.66Z" fill="#231f20"/><path d="M343.75,150.54h-24a.45.45,0,0,1-.46-.46.46.46,0,0,1,.46-.46h24a.46.46,0,0,1,.46.46A.45.45,0,0,1,343.75,150.54Z" fill="#d1d3d4"/><path d="M343.75,154.23h-24a.46.46,0,0,1,0-.92h24a.46.46,0,0,1,0,.92Z" fill="#d1d3d4"/><circle cx="302.17" cy="151.66" r="2.21" fill="#7db343"/><path d="M309.36,154.34a2.68,2.68,0,1,1,2.68-2.68A2.68,2.68,0,0,1,309.36,154.34Zm0-4.43a1.76,1.76,0,1,0,1.76,1.75A1.76,1.76,0,0,0,309.36,149.91Z" fill="#d1d3d4"/><rect x="294.58" y="161.94" width="55.98" height="14.23" rx="3.17" fill="#fff"/><path d="M347.39,176.69H297.75a3.7,3.7,0,0,1-3.69-3.69v-7.89a3.7,3.7,0,0,1,3.69-3.69h49.64a3.69,3.69,0,0,1,3.68,3.69V173A3.69,3.69,0,0,1,347.39,176.69Zm-49.64-14.23a2.66,2.66,0,0,0-2.66,2.65V173a2.66,2.66,0,0,0,2.66,2.65h49.64A2.65,2.65,0,0,0,350,173v-7.89a2.65,2.65,0,0,0-2.65-2.65Z" fill="#231f20"/><path d="M343.75,167.93h-24a.45.45,0,0,1-.46-.46.46.46,0,0,1,.46-.46h24a.46.46,0,0,1,.46.46A.45.45,0,0,1,343.75,167.93Z" fill="#d1d3d4"/><path d="M343.75,171.62h-24a.45.45,0,0,1-.46-.46.46.46,0,0,1,.46-.46h24a.46.46,0,0,1,.46.46A.45.45,0,0,1,343.75,171.62Z" fill="#d1d3d4"/><circle cx="302.17" cy="169.05" r="2.21" fill="#7db343"/><path d="M309.36,171.73a2.68,2.68,0,1,1,2.68-2.68A2.68,2.68,0,0,1,309.36,171.73Zm0-4.43a1.76,1.76,0,1,0,1.76,1.75A1.76,1.76,0,0,0,309.36,167.3Z" fill="#d1d3d4"/><rect x="294.58" y="179.33" width="55.98" height="14.23" rx="3.17" fill="#fff"/><path d="M347.39,194.08H297.75a3.7,3.7,0,0,1-3.69-3.69V182.5a3.69,3.69,0,0,1,3.69-3.68h49.64a3.68,3.68,0,0,1,3.68,3.68v7.89A3.69,3.69,0,0,1,347.39,194.08Zm-49.64-14.23a2.66,2.66,0,0,0-2.66,2.65v7.89a2.67,2.67,0,0,0,2.66,2.66h49.64a2.66,2.66,0,0,0,2.65-2.66V182.5a2.65,2.65,0,0,0-2.65-2.65Z" fill="#231f20"/><path d="M343.75,185.33h-24a.46.46,0,0,1-.46-.46.45.45,0,0,1,.46-.46h24a.45.45,0,0,1,.46.46A.46.46,0,0,1,343.75,185.33Z" fill="#d1d3d4"/><path d="M343.75,189h-24a.47.47,0,0,1,0-.93h24a.47.47,0,0,1,0,.93Z" fill="#d1d3d4"/><circle cx="302.17" cy="186.45" r="2.21" fill="#7db343"/><path d="M309.36,189.12a2.68,2.68,0,1,1,2.68-2.67A2.68,2.68,0,0,1,309.36,189.12Zm0-4.43a1.76,1.76,0,1,0,1.76,1.76A1.76,1.76,0,0,0,309.36,184.69Z" fill="#d1d3d4"/><rect x="173.09" y="88.29" width="65.94" height="120.35" rx="3.16" fill="#fff"/><path d="M235.88,209.16H176.26a3.68,3.68,0,0,1-3.68-3.68v-114a3.68,3.68,0,0,1,3.68-3.68h59.62a3.68,3.68,0,0,1,3.67,3.68v114A3.68,3.68,0,0,1,235.88,209.16ZM176.26,88.81a2.65,2.65,0,0,0-2.65,2.65v114a2.65,2.65,0,0,0,2.65,2.65h59.62a2.65,2.65,0,0,0,2.64-2.65v-114a2.65,2.65,0,0,0-2.64-2.65Z" fill="#231f20"/><rect x="178.37" y="92.37" width="55.98" height="14.23" rx="3.17" fill="#fff"/><path d="M231.18,107.12H181.54a3.69,3.69,0,0,1-3.68-3.69V95.54a3.69,3.69,0,0,1,3.68-3.69h49.64a3.69,3.69,0,0,1,3.69,3.69v7.89A3.69,3.69,0,0,1,231.18,107.12ZM181.54,92.89a2.65,2.65,0,0,0-2.65,2.65v7.89a2.65,2.65,0,0,0,2.65,2.65h49.64a2.66,2.66,0,0,0,2.66-2.65V95.54a2.66,2.66,0,0,0-2.66-2.65Z" fill="#231f20"/><path d="M227.55,98.36h-24a.46.46,0,0,1-.46-.46.47.47,0,0,1,.46-.46h24a.47.47,0,0,1,.46.46A.46.46,0,0,1,227.55,98.36Z" fill="#d1d3d4"/><path d="M227.55,102.05h-24a.46.46,0,0,1-.46-.46.47.47,0,0,1,.46-.46h24a.47.47,0,0,1,.46.46A.46.46,0,0,1,227.55,102.05Z" fill="#d1d3d4"/><circle cx="185.96" cy="99.48" r="2.21" fill="#7db343"/><path d="M193.16,102.16a2.68,2.68,0,1,1,2.67-2.68A2.68,2.68,0,0,1,193.16,102.16Zm0-4.43a1.76,1.76,0,1,0,1.75,1.75A1.76,1.76,0,0,0,193.16,97.73Z" fill="#d1d3d4"/><rect x="178.37" y="109.76" width="55.98" height="14.23" rx="3.17" fill="#fff"/><path d="M231.18,124.51H181.54a3.69,3.69,0,0,1-3.68-3.69v-7.89a3.68,3.68,0,0,1,3.68-3.68h49.64a3.69,3.69,0,0,1,3.69,3.68v7.89A3.69,3.69,0,0,1,231.18,124.51Zm-49.64-14.23a2.65,2.65,0,0,0-2.65,2.65v7.89a2.66,2.66,0,0,0,2.65,2.66h49.64a2.66,2.66,0,0,0,2.66-2.66v-7.89a2.66,2.66,0,0,0-2.66-2.65Z" fill="#231f20"/><path d="M227.55,115.76h-24a.47.47,0,0,1-.46-.46.46.46,0,0,1,.46-.46h24a.46.46,0,0,1,.46.46A.47.47,0,0,1,227.55,115.76Z" fill="#d1d3d4"/><path d="M227.55,119.45h-24a.47.47,0,0,1,0-.93h24a.47.47,0,0,1,0,.93Z" fill="#d1d3d4"/><circle cx="185.96" cy="116.88" r="2.21" fill="#7db343"/><path d="M193.16,119.55a2.68,2.68,0,1,1,2.67-2.67A2.68,2.68,0,0,1,193.16,119.55Zm0-4.43a1.76,1.76,0,1,0,1.75,1.76A1.76,1.76,0,0,0,193.16,115.12Z" fill="#d1d3d4"/><rect x="178.37" y="127.15" width="55.98" height="14.23" rx="3.17" fill="#fff"/><path d="M231.18,141.9H181.54a3.68,3.68,0,0,1-3.68-3.68v-7.9a3.68,3.68,0,0,1,3.68-3.68h49.64a3.69,3.69,0,0,1,3.69,3.68v7.9A3.69,3.69,0,0,1,231.18,141.9Zm-49.64-14.23a2.65,2.65,0,0,0-2.65,2.65v7.9a2.65,2.65,0,0,0,2.65,2.65h49.64a2.66,2.66,0,0,0,2.66-2.65v-7.9a2.66,2.66,0,0,0-2.66-2.65Z" fill="#231f20"/><path d="M227.55,133.15h-24a.47.47,0,0,1-.46-.46.46.46,0,0,1,.46-.46h24a.46.46,0,0,1,.46.46A.47.47,0,0,1,227.55,133.15Z" fill="#d1d3d4"/><path d="M227.55,136.84h-24a.47.47,0,0,1-.46-.46.46.46,0,0,1,.46-.46h24a.46.46,0,0,1,.46.46A.47.47,0,0,1,227.55,136.84Z" fill="#d1d3d4"/><circle cx="185.96" cy="134.27" r="2.21" fill="#7db343"/><path d="M193.16,136.94a2.67,2.67,0,1,1,2.67-2.67A2.68,2.68,0,0,1,193.16,136.94Zm0-4.42a1.75,1.75,0,1,0,1.75,1.75A1.75,1.75,0,0,0,193.16,132.52Z" fill="#d1d3d4"/><rect x="178.37" y="144.55" width="55.98" height="14.23" rx="3.17" fill="#fff"/><path d="M231.18,159.29H181.54a3.68,3.68,0,0,1-3.68-3.68v-7.89a3.69,3.69,0,0,1,3.68-3.69h49.64a3.69,3.69,0,0,1,3.69,3.69v7.89A3.69,3.69,0,0,1,231.18,159.29Zm-49.64-14.23a2.66,2.66,0,0,0-2.65,2.66v7.89a2.65,2.65,0,0,0,2.65,2.65h49.64a2.66,2.66,0,0,0,2.66-2.65v-7.89a2.66,2.66,0,0,0-2.66-2.66Z" fill="#231f20"/><path d="M227.55,150.54h-24a.46.46,0,0,1-.46-.46.47.47,0,0,1,.46-.46h24a.47.47,0,0,1,.46.46A.46.46,0,0,1,227.55,150.54Z" fill="#d1d3d4"/><path d="M227.55,154.23h-24a.46.46,0,0,1,0-.92h24a.46.46,0,0,1,0,.92Z" fill="#d1d3d4"/><circle cx="185.96" cy="151.66" r="2.21" fill="#7db343"/><path d="M193.16,154.34a2.68,2.68,0,1,1,2.67-2.68A2.68,2.68,0,0,1,193.16,154.34Zm0-4.43a1.76,1.76,0,1,0,1.75,1.75A1.76,1.76,0,0,0,193.16,149.91Z" fill="#d1d3d4"/><rect x="178.37" y="161.94" width="55.98" height="14.23" rx="3.17" fill="#fff"/><path d="M231.18,176.69H181.54a3.69,3.69,0,0,1-3.68-3.69v-7.89a3.69,3.69,0,0,1,3.68-3.69h49.64a3.69,3.69,0,0,1,3.69,3.69V173A3.69,3.69,0,0,1,231.18,176.69Zm-49.64-14.23a2.65,2.65,0,0,0-2.65,2.65V173a2.65,2.65,0,0,0,2.65,2.65h49.64a2.66,2.66,0,0,0,2.66-2.65v-7.89a2.66,2.66,0,0,0-2.66-2.65Z" fill="#231f20"/><path d="M227.55,167.93h-24a.46.46,0,0,1-.46-.46.47.47,0,0,1,.46-.46h24a.47.47,0,0,1,.46.46A.46.46,0,0,1,227.55,167.93Z" fill="#d1d3d4"/><path d="M227.55,171.62h-24a.46.46,0,0,1-.46-.46.47.47,0,0,1,.46-.46h24a.47.47,0,0,1,.46.46A.46.46,0,0,1,227.55,171.62Z" fill="#d1d3d4"/><circle cx="185.96" cy="169.05" r="2.21" fill="#7db343"/><path d="M193.16,171.73a2.68,2.68,0,1,1,2.67-2.68A2.68,2.68,0,0,1,193.16,171.73Zm0-4.43a1.76,1.76,0,1,0,1.75,1.75A1.76,1.76,0,0,0,193.16,167.3Z" fill="#d1d3d4"/><rect x="178.37" y="179.33" width="55.98" height="14.23" rx="3.17" fill="#fff"/><path d="M231.18,194.08H181.54a3.69,3.69,0,0,1-3.68-3.69V182.5a3.68,3.68,0,0,1,3.68-3.68h49.64a3.69,3.69,0,0,1,3.69,3.68v7.89A3.69,3.69,0,0,1,231.18,194.08Zm-49.64-14.23a2.65,2.65,0,0,0-2.65,2.65v7.89a2.66,2.66,0,0,0,2.65,2.66h49.64a2.66,2.66,0,0,0,2.66-2.66V182.5a2.66,2.66,0,0,0-2.66-2.65Z" fill="#231f20"/><path d="M227.55,185.33h-24a.47.47,0,0,1-.46-.46.46.46,0,0,1,.46-.46h24a.46.46,0,0,1,.46.46A.47.47,0,0,1,227.55,185.33Z" fill="#d1d3d4"/><path d="M227.55,189h-24a.47.47,0,0,1,0-.93h24a.47.47,0,0,1,0,.93Z" fill="#d1d3d4"/><circle cx="185.96" cy="186.45" r="2.21" fill="#7db343"/><path d="M193.16,189.12a2.68,2.68,0,1,1,2.67-2.67A2.68,2.68,0,0,1,193.16,189.12Zm0-4.43a1.76,1.76,0,1,0,1.75,1.76A1.76,1.76,0,0,0,193.16,184.69Z" fill="#d1d3d4"/><rect x="225.36" y="71.62" width="77.63" height="141.68" rx="3.72" fill="#fff"/><path d="M299.26,213.81H229.08a4.24,4.24,0,0,1-4.24-4.24V75.34a4.24,4.24,0,0,1,4.24-4.24h70.18a4.24,4.24,0,0,1,4.24,4.24V209.57A4.24,4.24,0,0,1,299.26,213.81ZM229.08,72.14a3.21,3.21,0,0,0-3.21,3.2V209.57a3.21,3.21,0,0,0,3.21,3.21h70.18a3.21,3.21,0,0,0,3.21-3.21V75.34a3.21,3.21,0,0,0-3.21-3.2Z" fill="#231f20"/><rect x="231.57" y="76.42" width="65.9" height="16.75" rx="3.73" fill="#fff"/><path d="M293.74,93.68H235.3a4.25,4.25,0,0,1-4.25-4.24V80.15a4.26,4.26,0,0,1,4.25-4.25h58.44A4.25,4.25,0,0,1,298,80.15v9.29A4.24,4.24,0,0,1,293.74,93.68ZM235.3,76.93a3.23,3.23,0,0,0-3.22,3.22v9.29a3.22,3.22,0,0,0,3.22,3.21h58.44A3.21,3.21,0,0,0,297,89.44V80.15a3.22,3.22,0,0,0-3.21-3.22Z" fill="#231f20"/><path d="M289.46,83.39h-28.3a.46.46,0,0,1-.46-.46.47.47,0,0,1,.46-.46h28.3a.47.47,0,0,1,.46.46A.46.46,0,0,1,289.46,83.39Z" fill="#d1d3d4"/><path d="M289.46,87.73h-28.3a.46.46,0,0,1-.46-.46.47.47,0,0,1,.46-.46h28.3a.47.47,0,0,1,.46.46A.46.46,0,0,1,289.46,87.73Z" fill="#d1d3d4"/><circle cx="240.5" cy="84.79" r="2.61" fill="#7db343"/><path d="M249,87.86A3.07,3.07,0,1,1,252,84.79,3.07,3.07,0,0,1,249,87.86Zm0-5.21a2.15,2.15,0,1,0,2.15,2.14A2.14,2.14,0,0,0,249,82.65Z" fill="#d1d3d4"/><rect x="231.57" y="96.89" width="65.9" height="16.75" rx="3.73" fill="#fff"/><path d="M293.74,114.16H235.3a4.26,4.26,0,0,1-4.25-4.25v-9.29a4.25,4.25,0,0,1,4.25-4.24h58.44a4.24,4.24,0,0,1,4.24,4.24v9.29A4.25,4.25,0,0,1,293.74,114.16ZM235.3,97.41a3.22,3.22,0,0,0-3.22,3.21v9.29a3.23,3.23,0,0,0,3.22,3.22h58.44a3.22,3.22,0,0,0,3.21-3.22v-9.29a3.21,3.21,0,0,0-3.21-3.21Z" fill="#231f20"/><path d="M289.46,103.87h-28.3a.47.47,0,0,1-.46-.46.46.46,0,0,1,.46-.46h28.3a.46.46,0,0,1,.46.46A.47.47,0,0,1,289.46,103.87Z" fill="#d1d3d4"/><path d="M289.46,108.21h-28.3a.47.47,0,0,1-.46-.46.46.46,0,0,1,.46-.46h28.3a.46.46,0,0,1,.46.46A.47.47,0,0,1,289.46,108.21Z" fill="#d1d3d4"/><circle cx="240.5" cy="105.27" r="2.61" fill="#7db343"/><path d="M249,108.33a3.07,3.07,0,1,1,3.07-3.06A3.06,3.06,0,0,1,249,108.33Zm0-5.21a2.15,2.15,0,1,0,2.15,2.15A2.14,2.14,0,0,0,249,103.12Z" fill="#d1d3d4"/><rect x="231.57" y="117.37" width="65.9" height="16.75" rx="3.73" fill="#fff"/><path d="M293.74,134.63H235.3a4.25,4.25,0,0,1-4.25-4.24V121.1a4.25,4.25,0,0,1,4.25-4.25h58.44A4.24,4.24,0,0,1,298,121.1v9.29A4.24,4.24,0,0,1,293.74,134.63ZM235.3,117.88a3.22,3.22,0,0,0-3.22,3.22v9.29a3.22,3.22,0,0,0,3.22,3.21h58.44a3.21,3.21,0,0,0,3.21-3.21V121.1a3.22,3.22,0,0,0-3.21-3.22Z" fill="#231f20"/><path d="M289.46,124.34h-28.3a.46.46,0,0,1,0-.92h28.3a.46.46,0,0,1,0,.92Z" fill="#d1d3d4"/><path d="M289.46,128.68h-28.3a.46.46,0,0,1-.46-.46.47.47,0,0,1,.46-.46h28.3a.47.47,0,0,1,.46.46A.46.46,0,0,1,289.46,128.68Z" fill="#d1d3d4"/><circle cx="240.5" cy="125.74" r="2.61" fill="#7db343"/><path d="M249,128.81a3.07,3.07,0,1,1,3.07-3.07A3.07,3.07,0,0,1,249,128.81Zm0-5.21a2.15,2.15,0,1,0,2.15,2.14A2.14,2.14,0,0,0,249,123.6Z" fill="#d1d3d4"/><rect x="231.57" y="137.84" width="65.9" height="16.75" rx="3.73" fill="#fff"/><path d="M293.74,155.11H235.3a4.26,4.26,0,0,1-4.25-4.25v-9.29a4.26,4.26,0,0,1,4.25-4.25h58.44a4.25,4.25,0,0,1,4.24,4.25v9.29A4.25,4.25,0,0,1,293.74,155.11ZM235.3,138.36a3.22,3.22,0,0,0-3.22,3.21v9.29a3.23,3.23,0,0,0,3.22,3.22h58.44a3.22,3.22,0,0,0,3.21-3.22v-9.29a3.21,3.21,0,0,0-3.21-3.21Z" fill="#231f20"/><path d="M289.46,144.81h-28.3a.46.46,0,0,1-.46-.46.47.47,0,0,1,.46-.46h28.3a.47.47,0,0,1,.46.46A.46.46,0,0,1,289.46,144.81Z" fill="#d1d3d4"/><path d="M289.46,149.16h-28.3a.47.47,0,0,1-.46-.46.46.46,0,0,1,.46-.46h28.3a.46.46,0,0,1,.46.46A.47.47,0,0,1,289.46,149.16Z" fill="#d1d3d4"/><circle cx="240.5" cy="146.22" r="2.61" fill="#7db343"/><path d="M249,149.28a3.07,3.07,0,1,1,3.07-3.06A3.06,3.06,0,0,1,249,149.28Zm0-5.21a2.15,2.15,0,1,0,2.15,2.15A2.14,2.14,0,0,0,249,144.07Z" fill="#d1d3d4"/><rect x="231.57" y="158.31" width="65.9" height="16.75" rx="3.73" fill="#fff"/><path d="M293.74,175.58H235.3a4.25,4.25,0,0,1-4.25-4.25V162a4.25,4.25,0,0,1,4.25-4.24h58.44A4.24,4.24,0,0,1,298,162v9.29A4.24,4.24,0,0,1,293.74,175.58ZM235.3,158.83a3.22,3.22,0,0,0-3.22,3.21v9.29a3.22,3.22,0,0,0,3.22,3.22h58.44a3.22,3.22,0,0,0,3.21-3.22V162a3.21,3.21,0,0,0-3.21-3.21Z" fill="#231f20"/><path d="M289.46,165.29h-28.3a.47.47,0,0,1-.46-.46.46.46,0,0,1,.46-.46h28.3a.46.46,0,0,1,.46.46A.47.47,0,0,1,289.46,165.29Z" fill="#d1d3d4"/><path d="M289.46,169.63h-28.3a.46.46,0,0,1-.46-.46.47.47,0,0,1,.46-.46h28.3a.47.47,0,0,1,.46.46A.46.46,0,0,1,289.46,169.63Z" fill="#d1d3d4"/><circle cx="240.5" cy="166.69" r="2.61" fill="#7db343"/><path d="M249,169.76a3.07,3.07,0,1,1,3.07-3.07A3.07,3.07,0,0,1,249,169.76Zm0-5.22a2.15,2.15,0,1,0,2.15,2.15A2.15,2.15,0,0,0,249,164.54Z" fill="#d1d3d4"/><rect x="231.57" y="178.79" width="65.9" height="16.75" rx="3.73" fill="#fff"/><path d="M293.74,196.06H235.3a4.26,4.26,0,0,1-4.25-4.25v-9.29a4.26,4.26,0,0,1,4.25-4.25h58.44a4.25,4.25,0,0,1,4.24,4.25v9.29A4.25,4.25,0,0,1,293.74,196.06ZM235.3,179.3a3.23,3.23,0,0,0-3.22,3.22v9.29A3.22,3.22,0,0,0,235.3,195h58.44a3.21,3.21,0,0,0,3.21-3.21v-9.29a3.22,3.22,0,0,0-3.21-3.22Z" fill="#231f20"/><path d="M289.46,185.76h-28.3a.46.46,0,0,1-.46-.46.47.47,0,0,1,.46-.46h28.3a.47.47,0,0,1,.46.46A.46.46,0,0,1,289.46,185.76Z" fill="#d1d3d4"/><path d="M289.46,190.11h-28.3a.47.47,0,0,1-.46-.46.46.46,0,0,1,.46-.46h28.3a.46.46,0,0,1,.46.46A.47.47,0,0,1,289.46,190.11Z" fill="#d1d3d4"/><circle cx="240.5" cy="187.16" r="2.61" fill="#7db343"/><path d="M249,190.23a3.07,3.07,0,1,1,3.07-3.07A3.07,3.07,0,0,1,249,190.23Zm0-5.21a2.15,2.15,0,1,0,2.15,2.14A2.14,2.14,0,0,0,249,185Z" fill="#d1d3d4"/><rect x="37.25" y="118.33" width="129.91" height="71.44" rx="5.4" fill="#fff"/><path d="M161.76,190.29H42.65a5.92,5.92,0,0,1-5.91-5.91V123.73a5.92,5.92,0,0,1,5.91-5.91H161.76a5.92,5.92,0,0,1,5.92,5.91v60.65A5.92,5.92,0,0,1,161.76,190.29ZM42.65,118.85a4.89,4.89,0,0,0-4.88,4.88v60.65a4.89,4.89,0,0,0,4.88,4.88H161.76a4.89,4.89,0,0,0,4.89-4.88V123.73a4.89,4.89,0,0,0-4.89-4.88Z" fill="#231f20"/><rect x="37.25" y="126.46" width="129.91" height="55.18" fill="#fff"/><path d="M167.16,182.16H37.25a.51.51,0,0,1-.51-.51V126.46a.51.51,0,0,1,.51-.51H167.16a.51.51,0,0,1,.52.51v55.19A.51.51,0,0,1,167.16,182.16Zm-129.39-1H166.65V127H37.77Z" fill="#231f20"/><polygon points="124.92 205.43 79.5 205.43 84.63 189.77 119.78 189.77 124.92 205.43" fill="#fff"/><path d="M124.92,205.94H79.5a.53.53,0,0,1-.42-.21.48.48,0,0,1-.07-.46l5.13-15.66a.52.52,0,0,1,.49-.35h35.15a.5.5,0,0,1,.49.35l5.14,15.66a.51.51,0,0,1-.49.67Zm-44.71-1h44l-4.8-14.62H85Z" fill="#231f20"/><rect x="73.54" y="205.43" width="57.33" height="4.41" rx="2.2" fill="#fff"/><path d="M128.67,210.35H75.74a2.72,2.72,0,0,1,0-5.44h52.93a2.72,2.72,0,0,1,0,5.44Zm-52.93-4.41a1.69,1.69,0,0,0,0,3.38h52.93a1.69,1.69,0,1,0,0-3.38Z" fill="#231f20"/><path d="M81,201.28c.73-.39,40.05-7.58,40.05-7.58l-1.29-3.93H84.63Z" fill="#231f20"/><path d="M81,201.79a.47.47,0,0,1-.32-.12.5.5,0,0,1-.14-.54l3.61-11.51a.52.52,0,0,1,.48-.35h35.15a.5.5,0,0,1,.48.35l1.29,3.93a.5.5,0,0,1,0,.41.5.5,0,0,1-.34.24c-15.51,2.83-39,7.18-39.95,7.54A.54.54,0,0,1,81,201.79Zm4-11.52-3.24,10.32c5.23-1.14,29.77-5.65,38.66-7.28l-1-3Z" fill="#231f20"/><rect x="151.26" y="171.36" width="5.55" height="3.82" transform="translate(308.08 346.54) rotate(-180)" fill="#7db343"/><rect x="143.29" y="165.96" width="5.55" height="9.22" transform="translate(292.13 341.14) rotate(-180)" fill="#d1d3d4"/><rect x="135.32" y="144.98" width="5.55" height="30.2" transform="translate(276.18 320.16) rotate(-180)" fill="#7db343"/><rect x="127.34" y="140.55" width="5.55" height="34.63" transform="translate(260.23 315.73) rotate(-180)" fill="#d1d3d4"/><rect x="119.37" y="153.91" width="5.55" height="21.27" transform="translate(244.28 329.09) rotate(-180)" fill="#7db343"/><rect x="111.39" y="144.23" width="5.55" height="30.95" transform="translate(228.34 319.41) rotate(-180)" fill="#d1d3d4"/><rect x="103.42" y="165.96" width="5.55" height="9.22" transform="translate(212.39 341.14) rotate(-180)" fill="#7db343"/><rect x="95.45" y="139.39" width="5.55" height="35.79" transform="translate(196.44 314.58) rotate(-180)" fill="#d1d3d4"/><rect x="87.47" y="132.93" width="5.55" height="42.26" transform="translate(180.49 308.11) rotate(-180)" fill="#7db343"/><rect x="79.5" y="152.96" width="5.55" height="22.23" transform="translate(164.54 328.14) rotate(-180)" fill="#d1d3d4"/><rect x="71.52" y="164.5" width="5.55" height="10.68" transform="translate(148.6 339.68) rotate(-180)" fill="#7db343"/><rect x="63.55" y="156.74" width="5.55" height="18.44" transform="translate(132.65 331.92) rotate(-180)" fill="#d1d3d4"/><rect x="55.58" y="161.39" width="5.55" height="13.79" transform="translate(116.7 336.57) rotate(-180)" fill="#7db343"/><rect x="47.6" y="164.4" width="5.55" height="10.78" transform="translate(100.75 339.58) rotate(-180)" fill="#d1d3d4"/><polygon points="162.9 79.19 124.92 79.19 124.92 101.7 124.92 105.27 124.92 112.28 132.05 105.27 162.9 105.27 162.9 79.19" fill="#fff"/><path d="M124.92,112.74a.39.39,0,0,1-.18,0,.46.46,0,0,1-.28-.42V79.19a.46.46,0,0,1,.46-.46h38a.46.46,0,0,1,.46.46v26.08a.47.47,0,0,1-.46.46H132.24l-7,6.88A.48.48,0,0,1,124.92,112.74Zm.46-33.09v31.53l6.35-6.24a.44.44,0,0,1,.32-.13h30.39V79.65Z" fill="#d1d3d4"/><path d="M155.84,86.36H132.9a.47.47,0,1,1,0-.93h22.94a.47.47,0,0,1,0,.93Z" fill="#d1d3d4"/><path d="M155.84,92H132.9a.46.46,0,0,1-.47-.46.47.47,0,0,1,.47-.46h22.94a.47.47,0,0,1,.46.46A.46.46,0,0,1,155.84,92Z" fill="#d1d3d4"/><path d="M150,97.65H132.9a.46.46,0,0,1-.47-.46.47.47,0,0,1,.47-.46H150a.47.47,0,0,1,.46.46A.46.46,0,0,1,150,97.65Z" fill="#7db343"/></g></svg>