<svg id="_70_notes" data-name="#70_notes" xmlns="http://www.w3.org/2000/svg" viewBox="0 0 400 300"><path d="M47.3,49.69,38,140.84l73.91,4.1S133,88.28,133.52,62.28Z" fill="#7db343"/><path d="M111.9,144.94s-1.65-14-10.41-21.9c0,0,20.27-19,27.11-31.4C128.6,91.64,119.29,127.42,111.9,144.94Z" fill="#231f20"/><rect x="85.76" y="49.67" width="11.91" height="18.74" fill="#fff"/><path d="M97.66,68.91H85.76a.5.5,0,0,1-.5-.5V49.67a.5.5,0,0,1,.5-.5h11.9a.5.5,0,0,1,.5.5V68.41A.5.5,0,0,1,97.66,68.91Zm-11.4-1h10.9V50.17H86.26Z" fill="#231f20"/><path d="M277,168.15s-6.21,58.76-4.75,63.14,52.92,24.09,59.86,27.37,24.81,0,24.81,0l7.3-85Z" fill="#7db343"/><path d="M278,235.3s16,0,24.54-3.83c0,0,18.21,20.65,23.61,24.65C326.19,256.12,290.17,242.42,278,235.3Z" fill="#231f20"/><rect x="312.82" y="158.2" width="13.98" height="21.77" transform="translate(30.18 -47.67) rotate(8.95)" fill="#231f20"/><polygon points="128.6 166.84 41.2 159.95 31.41 241.66 122.13 249.46 128.6 166.84" fill="#231f20"/><path d="M106.94,159.09l-51.55-4.52s1.42,1.84.91,2.45-2.44.4-1.73,1.22a2.77,2.77,0,0,1,.71,3.26c-.61,1.63-.2,2.35.41,2.75s-2,1.94-1.27,2S107,170.37,107,170.37s-1.52-2.14-.91-2.65,3-.16,2.07-2-1.67-2.45-.65-3.21-1-2.19-.71-2.5A1.06,1.06,0,0,0,106.94,159.09Z" fill="#7db343"/><path d="M156.66,159.05l-6.19,88.1s8.18-1.25,15.34,1.08,8.87,3.92,13.1.92,5.77-4,11.05-1.05,18.62.58,25.17,1,5.87,5.06,11,5.29,14,1,14,1l6.33-90Zm7.1,11.16a2.52,2.52,0,1,1,2.69-2.33A2.52,2.52,0,0,1,163.76,170.21Zm12.34.87a2.52,2.52,0,1,1,2.68-2.33A2.52,2.52,0,0,1,176.1,171.08Zm12.33.87a2.52,2.52,0,1,1,2.69-2.34A2.52,2.52,0,0,1,188.43,172Zm12.34.87a2.52,2.52,0,1,1,2.69-2.34A2.52,2.52,0,0,1,200.77,172.82Zm12.34.86a2.52,2.52,0,1,1,2.69-2.33A2.5,2.5,0,0,1,213.11,173.68Zm12.34.87a2.52,2.52,0,1,1,2.69-2.33A2.53,2.53,0,0,1,225.45,174.55Zm12.34.87a2.52,2.52,0,1,1,2.68-2.34A2.52,2.52,0,0,1,237.79,175.42Z" fill="#7db343"/><path d="M181.06,175.29a3.41,3.41,0,0,1-3.31-2.62l-3.29-13.57a3.42,3.42,0,1,1,6.65-1.61l2.94,12.15a.5.5,0,0,1-.37.61.5.5,0,0,1-.6-.37l-2.94-12.15a2.42,2.42,0,0,0-4.71,1.14l3.29,13.57a2.43,2.43,0,0,0,2.92,1.78l1.54-.38a2.37,2.37,0,0,0,1.49-1.09,2.4,2.4,0,0,0,.29-1.83l-4.55-18.78a4,4,0,1,0-7.75,1.88l1.44,5.92a.51.51,0,0,1-.37.61.5.5,0,0,1-.6-.37l-1.44-5.93a5,5,0,0,1,.59-3.77,5,5,0,0,1,9.1,1.42l4.55,18.79a3.42,3.42,0,0,1-2.52,4.13l-1.53.37A3.83,3.83,0,0,1,181.06,175.29Z" fill="#231f20"/><path d="M352.53,48.18l-81.48,4s2.28,66.05,9.58,88.68l87.95-4.75S355.45,84,352.53,48.18Z" fill="#231f20"/><path d="M302,67.11h-1.58A3.42,3.42,0,0,1,297,63.69v-14a3.42,3.42,0,0,1,6.84,0v12.5a.5.5,0,0,1-.5.5.5.5,0,0,1-.5-.5V49.73a2.42,2.42,0,1,0-4.84,0v14a2.42,2.42,0,0,0,2.42,2.42H302a2.42,2.42,0,0,0,2.42-2.42V44.37a4,4,0,1,0-8,0v6.09a.5.5,0,0,1-.5.5.5.5,0,0,1-.5-.5V44.37a5,5,0,1,1,10,0V63.69A3.42,3.42,0,0,1,302,67.11Z" fill="#7db343"/><path d="M153.45,49.69v89.94h89.94V49.69Z" fill="#fff"/><path d="M243.39,140.13H153.45a.51.51,0,0,1-.5-.5V49.69a.5.5,0,0,1,.5-.5h89.94a.5.5,0,0,1,.5.5v89.94A.5.5,0,0,1,243.39,140.13Zm-89.44-1h88.94V50.19H154Z" fill="#231f20"/><path d="M166.45,135.73a.5.5,0,0,1-.5-.5V52.84a.5.5,0,0,1,1,0v82.39A.5.5,0,0,1,166.45,135.73Z" fill="#d1d3d4"/><path d="M238,64.93H159a.5.5,0,0,1-.5-.5.5.5,0,0,1,.5-.5h79a.5.5,0,0,1,.5.5A.5.5,0,0,1,238,64.93Z" fill="#d1d3d4"/><path d="M238,80.25H159a.5.5,0,0,1-.5-.5.5.5,0,0,1,.5-.5h79a.5.5,0,0,1,.5.5A.5.5,0,0,1,238,80.25Z" fill="#d1d3d4"/><path d="M238,95.58H159a.5.5,0,0,1-.5-.5.5.5,0,0,1,.5-.5h79a.5.5,0,0,1,.5.5A.5.5,0,0,1,238,95.58Z" fill="#d1d3d4"/><path d="M238,110.91H159a.5.5,0,0,1,0-1h79a.5.5,0,0,1,0,1Z" fill="#d1d3d4"/><path d="M238,126.24H159a.5.5,0,0,1,0-1h79a.5.5,0,0,1,0,1Z" fill="#d1d3d4"/><path d="M198.57,57a5.82,5.82,0,0,0,.6-.61c1-1.16,4.7-7,4.7-7l-1.45-.62s-3.64,5.56-4.3,6.58a4.12,4.12,0,0,0-.43.93Z" fill="#231f20"/><circle cx="203.55" cy="48.73" r="4.11" fill="#fff"/><path d="M203.55,53.34a4.61,4.61,0,1,1,4.6-4.61A4.61,4.61,0,0,1,203.55,53.34Zm0-8.22a3.61,3.61,0,1,0,3.6,3.61A3.61,3.61,0,0,0,203.55,45.12Z" fill="#231f20"/><circle cx="204.83" cy="46.42" r="3.47" fill="#fff"/><path d="M204.83,50.39a4,4,0,1,1,4-4A4,4,0,0,1,204.83,50.39Zm0-6.94a3,3,0,1,0,3,3A3,3,0,0,0,204.83,43.45Z" fill="#231f20"/></svg>