<?xml version="1.0" standalone="no"?>
<!DOCTYPE svg PUBLIC "-//W3C//DTD SVG 20010904//EN"
 "http://www.w3.org/TR/2001/REC-SVG-20010904/DTD/svg10.dtd">
<svg version="1.0" xmlns="http://www.w3.org/2000/svg"
 width="1280.000000pt" height="966.000000pt" viewBox="0 0 1280.000000 966.000000"
 preserveAspectRatio="xMidYMid meet">
<metadata>
Created by potrace 1.15, written by Peter Selinger 2001-2017
</metadata>
<g transform="translate(0.000000,966.000000) scale(0.100000,-0.100000)"
fill="#7db343" stroke="none">
<path d="M8870 9652 c0 -15 93 -96 144 -126 70 -41 170 -73 362 -116 693 -156
1473 -488 1854 -789 229 -181 378 -380 425 -566 25 -97 21 -234 -10 -340 -61
-210 -190 -378 -503 -654 l-72 -63 0 43 c0 59 -24 189 -50 274 -175 561 -814
949 -1889 1150 -182 34 -464 75 -470 69 -11 -10 125 -129 216 -187 128 -83
167 -104 495 -273 290 -150 467 -252 580 -336 99 -73 208 -193 248 -274 32
-64 35 -76 34 -159 0 -80 -3 -98 -32 -159 -91 -196 -324 -403 -626 -557 -158
-81 -159 -81 -152 -53 13 59 18 240 7 297 -53 286 -322 538 -670 627 -139 36
-323 51 -410 34 -43 -9 -38 -14 148 -147 204 -145 298 -238 348 -343 34 -71
38 -87 38 -159 0 -71 -4 -88 -34 -149 -127 -259 -596 -485 -1253 -605 -407
-74 -749 -103 -1228 -104 -867 0 -1675 132 -2083 340 -187 96 -304 208 -337
327 -20 73 -9 174 29 251 65 132 199 215 541 335 234 82 353 140 425 205 49
44 49 46 20 41 -16 -3 -82 -13 -145 -21 -161 -23 -392 -69 -545 -110 -527
-139 -808 -330 -854 -579 -19 -102 13 -235 83 -346 19 -30 33 -56 32 -58 -6
-5 -255 70 -341 105 -285 112 -563 316 -640 468 -26 53 -30 70 -30 145 0 78 3
90 35 150 71 132 255 281 530 431 134 73 223 115 609 291 157 71 325 150 375
177 l89 49 -59 13 c-76 17 -407 17 -534 1 -857 -112 -1571 -486 -1771 -928
-44 -96 -62 -185 -62 -305 l0 -106 -78 43 c-309 166 -506 375 -565 597 -18 68
-18 208 1 277 60 224 252 432 579 627 577 343 1392 597 2351 732 229 33 205
21 205 102 0 59 -3 69 -17 69 -71 0 -489 -35 -673 -56 -1015 -114 -1937 -364
-2685 -729 -264 -129 -433 -242 -581 -389 -353 -353 -364 -716 -33 -1061 298
-310 689 -501 1474 -720 59 -17 60 -18 108 -96 166 -274 486 -538 905 -748
426 -213 1272 -503 2117 -725 1327 -348 2671 -518 3785 -478 399 14 553 28
1120 97 537 65 676 86 885 131 722 154 1124 432 1304 903 18 46 31 85 29 86
-2 2 -52 -19 -113 -47 -1328 -601 -2998 -826 -4795 -648 -1046 104 -2088 329
-3125 675 -538 179 -838 303 -1152 476 -81 46 -172 96 -200 111 -29 16 -55 33
-57 37 -3 3 37 -4 87 -16 699 -174 1630 -307 2532 -363 1025 -63 2458 -43
3335 46 1127 114 2239 380 3110 744 678 283 1065 619 1182 1025 28 97 31 285
6 375 -112 402 -505 744 -1228 1071 -464 209 -1008 379 -1582 493 -324 65
-568 100 -1045 152 -32 3 -53 2 -53 -4z"/>
<path d="M6095 6954 c-498 -49 -711 -81 -935 -139 -144 -38 -292 -88 -297
-101 -6 -17 50 -123 92 -174 156 -187 466 -303 912 -341 180 -15 704 -6 899
15 206 22 574 74 686 97 183 36 306 93 373 172 144 168 -17 311 -445 396 -183
36 -651 73 -965 76 -154 2 -298 1 -320 -1z"/>
<path d="M12222 6745 c-274 -195 -739 -449 -1107 -604 -925 -391 -1958 -597
-3480 -696 -890 -57 -1090 -57 -1630 4 -489 54 -637 65 -850 58 -192 -6 -308
-22 -445 -61 -164 -46 -164 -47 -5 -67 1368 -173 2120 -229 3045 -229 937 0
1675 71 2500 239 391 80 648 151 915 253 567 216 937 541 1079 948 30 87 57
200 48 200 -4 -1 -35 -21 -70 -45z"/>
<path d="M2580 5455 c0 -4 32 -48 70 -98 340 -443 836 -822 1431 -1094 1030
-469 2321 -703 4154 -753 474 -13 1362 -13 1575 0 822 49 1280 261 1463 677
28 62 59 173 71 250 l6 43 -157 -80 c-521 -261 -1111 -424 -1798 -495 -476
-49 -1112 -45 -1665 10 -955 96 -2023 334 -3106 693 -306 102 -367 128 -904
392 -585 287 -784 371 -1020 430 -47 11 -93 23 -102 26 -10 3 -18 2 -18 -1z"/>
<path d="M4740 3549 c540 -514 1534 -884 2575 -960 224 -16 655 -6 851 20 539
73 977 246 1274 504 l44 37 -75 0 c-117 0 -470 -18 -884 -46 -463 -30 -977
-41 -1200 -25 -419 30 -615 72 -1200 253 -557 173 -700 213 -897 253 -180 37
-335 55 -466 55 l-117 -1 95 -90z"/>
<path d="M4926 2972 c26 -198 143 -360 394 -550 125 -95 346 -238 448 -291
255 -130 550 -217 912 -268 96 -13 193 -17 420 -17 256 0 314 3 440 22 442 69
801 222 1045 445 l70 64 -665 6 c-636 6 -890 16 -1170 47 -683 75 -1222 229
-1736 494 l-162 84 4 -36z"/>
<path d="M4992 2077 c3 -87 7 -102 43 -172 65 -129 198 -257 420 -406 322
-215 599 -305 976 -316 395 -12 703 68 982 253 94 63 277 228 265 239 -12 12
-263 26 -727 40 -267 8 -537 20 -600 25 -494 44 -885 163 -1295 394 l-69 39 5
-96z"/>
<path d="M4790 1181 c0 -24 77 -194 127 -282 164 -287 471 -605 799 -829 108
-74 114 -74 114 -10 0 16 13 67 28 113 46 136 113 224 341 450 184 183 248
254 297 331 l18 28 -90 -8 c-138 -12 -536 -9 -659 5 -262 30 -505 79 -803 161
-81 22 -153 43 -159 45 -7 2 -13 1 -13 -4z"/>
</g>
</svg>
